<svg width="64" height="64" viewBox="0 0 64 64" fill="none" xmlns="http://www.w3.org/2000/svg">
<path d="M51.16 51.09C50.6708 51.0934 50.1973 50.9174 49.8291 50.5952C49.4609 50.2731 49.2235 49.8271 49.162 49.3418C49.1004 48.8565 49.2188 48.3654 49.4949 47.9615C49.7709 47.5576 50.1855 47.2689 50.66 47.15C51.8764 46.8286 52.9587 46.128 53.75 45.15C53.9155 44.9458 54.1196 44.7762 54.3506 44.6508C54.5816 44.5255 54.835 44.4469 55.0964 44.4195C55.3578 44.3921 55.6221 44.4164 55.874 44.4912C56.126 44.5659 56.3608 44.6895 56.565 44.855C56.7692 45.0204 56.9388 45.2245 57.0642 45.4555C57.1895 45.6865 57.2681 45.94 57.2955 46.2014C57.3229 46.4628 57.2986 46.727 57.2238 46.979C57.1491 47.231 57.0255 47.4658 56.86 47.67C55.5268 49.3021 53.7093 50.4682 51.67 51C51.5046 51.0519 51.3332 51.0822 51.16 51.09ZM46.25 50.8C46.0001 50.7993 45.7525 50.7518 45.52 50.66C45.2134 50.54 44.9134 50.4033 44.62 50.25L40.87 48.34C40.6282 48.2252 40.4119 48.0632 40.2339 47.8633C40.0559 47.6635 39.9198 47.43 39.8337 47.1766C39.7476 46.9232 39.7132 46.6551 39.7326 46.3882C39.752 46.1212 39.8248 45.8609 39.9466 45.6226C40.0684 45.3844 40.2368 45.1729 40.4418 45.0009C40.6468 44.8289 40.8843 44.6998 41.1401 44.6212C41.3959 44.5426 41.6649 44.5162 41.9312 44.5435C42.1974 44.5707 42.4554 44.6512 42.69 44.78L46.44 46.69C46.6159 46.779 46.7961 46.8591 46.98 46.93C47.4126 47.1009 47.772 47.4172 47.9965 47.8245C48.221 48.2318 48.2965 48.7046 48.2101 49.1616C48.1237 49.6186 47.8807 50.0312 47.523 50.3284C47.1652 50.6256 46.7151 50.7888 46.25 50.79V50.8ZM37.33 46.29C37.0136 46.2897 36.7017 46.2143 36.42 46.07L32.28 44L32 43.85C31.75 43.749 31.5229 43.5985 31.3325 43.4075C31.1421 43.2165 30.9923 42.989 30.8921 42.7386C30.7919 42.4882 30.7434 42.2202 30.7495 41.9506C30.7555 41.681 30.816 41.4154 30.9274 41.1698C31.0387 40.9242 31.1986 40.7036 31.3973 40.5213C31.5961 40.3391 31.8297 40.1989 32.084 40.1093C32.3384 40.0196 32.6082 39.9823 32.8773 39.9996C33.1464 40.0169 33.4093 40.0885 33.65 40.21L34.05 40.4L38.19 42.51C38.5894 42.7146 38.9083 43.0475 39.0956 43.4552C39.2829 43.863 39.3276 44.3218 39.2226 44.7581C39.1175 45.1943 38.8689 45.5826 38.5166 45.8604C38.1642 46.1382 37.7287 46.2895 37.28 46.29H37.33ZM23.47 45.54C23.0239 45.5472 22.5882 45.405 22.2322 45.136C21.8761 44.867 21.6203 44.4867 21.5053 44.0556C21.3904 43.6244 21.4229 43.1672 21.5977 42.7567C21.7725 42.3462 22.0795 42.0059 22.47 41.79L24.75 40.54C25.6308 40.0666 26.5782 39.7295 27.56 39.54C28.0741 39.4493 28.6032 39.5633 29.0344 39.8575C29.4656 40.1517 29.7647 40.6028 29.8678 41.1145C29.971 41.6262 29.8699 42.1579 29.5864 42.5962C29.3028 43.0344 28.8591 43.3444 28.35 43.46C27.7623 43.577 27.1959 43.7826 26.67 44.07L24.43 45.3C24.1322 45.4608 23.7985 45.5433 23.46 45.54H23.47ZM57 43.83C56.7314 43.8301 56.4655 43.7762 56.2181 43.6713C55.9708 43.5665 55.7471 43.4128 55.5605 43.2197C55.3738 43.0265 55.228 42.7976 55.1317 42.5469C55.0354 42.2961 54.9906 42.0284 55 41.76V41.59C55.016 40.413 54.6667 39.2601 54 38.29C53.8027 38.0821 53.6524 37.8341 53.5592 37.563C53.4661 37.2919 53.4323 37.004 53.4602 36.7187C53.488 36.4334 53.5769 36.1574 53.7208 35.9095C53.8646 35.6615 54.0601 35.4474 54.2939 35.2816C54.5278 35.1158 54.7945 35.0022 55.0761 34.9485C55.3577 34.8949 55.6476 34.9023 55.926 34.9705C56.2044 35.0386 56.465 35.1658 56.69 35.3434C56.915 35.521 57.0991 35.7449 57.23 36C58.3844 37.6352 59.0028 39.5884 59 41.59C59 41.7 59 41.8 59 41.9C58.9819 42.4182 58.7632 42.9091 58.3901 43.2691C58.0169 43.6292 57.5186 43.8303 57 43.83V43.83ZM51.61 36.22C51.3854 36.2206 51.1623 36.1834 50.95 36.11L46.24 34.61C45.7519 34.4358 45.3505 34.079 45.1202 33.6147C44.89 33.1504 44.849 32.6148 45.0059 32.1209C45.1628 31.627 45.5053 31.2132 45.9612 30.9668C46.4171 30.7204 46.9509 30.6606 47.45 30.8L52.15 32.29H52.27C52.7174 32.4448 53.0954 32.7533 53.3367 33.1607C53.578 33.568 53.6669 34.0478 53.5877 34.5145C53.5085 34.9813 53.2663 35.4048 52.9042 35.7098C52.5421 36.0148 52.0835 36.1814 51.61 36.18V36.22ZM42.08 33.22C41.8733 33.2217 41.6675 33.1913 41.47 33.13L36.7 31.62C36.2119 31.4458 35.8105 31.089 35.5802 30.6247C35.35 30.1604 35.309 29.6248 35.4659 29.1309C35.6228 28.637 35.9653 28.2232 36.4212 27.9768C36.8771 27.7304 37.4109 27.6706 37.91 27.81L42.68 29.32C43.1375 29.462 43.5288 29.7636 43.7827 30.1698C44.0367 30.576 44.1364 31.0598 44.0637 31.5333C43.9911 32.0068 43.7509 32.4385 43.3868 32.7499C43.0228 33.0612 42.5591 33.2316 42.08 33.23V33.22ZM32.55 30.22C32.3433 30.2217 32.1375 30.1913 31.94 30.13L27.2 28.57C26.7119 28.3958 26.3105 28.039 26.0802 27.5747C25.85 27.1104 25.809 26.5748 25.9659 26.0809C26.1228 25.587 26.4653 25.1732 26.9212 24.9268C27.3771 24.6804 27.9109 24.6206 28.41 24.76L33.18 26.27C33.6375 26.412 34.0288 26.7136 34.2827 27.1198C34.5367 27.526 34.6364 28.0098 34.5637 28.4833C34.4911 28.9568 34.2509 29.3885 33.8868 29.6999C33.5228 30.0112 33.0591 30.1816 32.58 30.18L32.55 30.22ZM23.02 27.22C22.8133 27.2217 22.6075 27.1913 22.41 27.13L17.64 25.62C17.1519 25.4458 16.7505 25.089 16.5202 24.6247C16.29 24.1604 16.249 23.6248 16.4059 23.1309C16.5628 22.637 16.9053 22.2232 17.3612 21.9768C17.8171 21.7304 18.3509 21.6706 18.85 21.81L23.62 23.32C24.0775 23.462 24.4688 23.7636 24.7227 24.1698C24.9767 24.576 25.0764 25.0598 25.0037 25.5333C24.9311 26.0068 24.6909 26.4385 24.3268 26.7499C23.9628 27.0612 23.4991 27.2316 23.02 27.23V27.22ZM13.49 24.22C13.283 24.1782 13.0838 24.104 12.9 24L11.84 23.66C10.2813 23.1657 8.86924 22.2931 7.73003 21.12C7.533 20.9347 7.3756 20.7113 7.26735 20.4634C7.15911 20.2155 7.10228 19.9483 7.10028 19.6778C7.09829 19.4073 7.15118 19.1392 7.25576 18.8898C7.36034 18.6403 7.51443 18.4147 7.70872 18.2265C7.903 18.0383 8.13344 17.8915 8.3861 17.7949C8.63875 17.6983 8.90837 17.654 9.17865 17.6646C9.44893 17.6752 9.71425 17.7405 9.95856 17.8566C10.2029 17.9727 10.4211 18.1371 10.6 18.34C11.2757 19.0354 12.1144 19.551 13.04 19.84L14.1 20.18C14.5575 20.322 14.9488 20.6236 15.2027 21.0298C15.4567 21.436 15.5564 21.9198 15.4837 22.3933C15.4111 22.8668 15.1709 23.2985 14.8068 23.6099C14.4428 23.9212 13.9791 24.0916 13.5 24.09L13.49 24.22ZM52.85 23.85C52.5745 23.849 52.3021 23.7911 52.05 23.68L47.47 21.68C46.9993 21.4571 46.634 21.0594 46.452 20.5714C46.2699 20.0835 46.2854 19.5437 46.4951 19.067C46.7048 18.5902 47.0922 18.2141 47.575 18.0186C48.0577 17.8231 48.5977 17.8236 49.08 18.02L53.66 20.02C54.0801 20.2052 54.4237 20.5293 54.633 20.9379C54.8424 21.3465 54.9048 21.8146 54.8098 22.2638C54.7149 22.713 54.4682 23.1158 54.1114 23.4046C53.7545 23.6934 53.3091 23.8507 52.85 23.85V23.85ZM43.7 19.85C43.4245 19.849 43.1521 19.7911 42.9 19.68L38.32 17.68C37.8493 17.4571 37.484 17.0594 37.302 16.5714C37.1199 16.0835 37.1354 15.5437 37.3451 15.067C37.5548 14.5902 37.9422 14.2141 38.425 14.0186C38.9077 13.8231 39.4477 13.8236 39.93 14.02L44.51 16.02C44.9301 16.2052 45.2737 16.5293 45.483 16.9379C45.6924 17.3465 45.7548 17.8146 45.6598 18.2638C45.5649 18.713 45.3182 19.1158 44.9614 19.4046C44.6045 19.6934 44.1591 19.8507 43.7 19.85V19.85ZM7.00003 17.34C6.5102 17.3438 6.03599 17.1678 5.66734 16.8452C5.2987 16.5226 5.06125 16.076 5.00003 15.59C4.7925 13.888 5.04456 12.1615 5.73003 10.59L6.05003 9.84997L6.11003 9.71997C6.33016 9.23728 6.73302 8.8618 7.23 8.67614C7.72697 8.49048 8.27734 8.50984 8.76003 8.72997C9.24273 8.9501 9.6182 9.35296 9.80386 9.84993C9.98953 10.3469 9.97016 10.8973 9.75003 11.38L8.00003 10.51L9.81003 11.36L9.47003 12.15C9.05143 13.0698 8.88904 14.0855 9.00003 15.09C9.06567 15.6103 8.92427 16.1357 8.60629 16.5528C8.28831 16.9699 7.8192 17.2454 7.30003 17.32L7.00003 17.34ZM34.56 15.7C34.2845 15.699 34.0121 15.6411 33.76 15.53L29.18 13.53C28.7093 13.3071 28.344 12.9094 28.162 12.4214C27.9799 11.9335 27.9954 11.3937 28.2051 10.917C28.4148 10.4402 28.8022 10.0641 29.285 9.86859C29.7677 9.67306 30.3077 9.67355 30.79 9.86997L35.37 11.87C35.7901 12.0552 36.1337 12.3793 36.343 12.7879C36.5524 13.1965 36.6148 13.6646 36.5198 14.1138C36.4249 14.563 36.1782 14.9658 35.8214 15.2546C35.4645 15.5434 35.0191 15.7007 34.56 15.7ZM25.41 11.7C25.1345 11.699 24.8621 11.6411 24.61 11.53L20 9.47997C19.5293 9.25712 19.164 8.85942 18.982 8.37145C18.7999 7.88348 18.8154 7.34373 19.0251 6.86699C19.2348 6.39025 19.6222 6.01412 20.105 5.81859C20.5877 5.62306 21.1277 5.62355 21.61 5.81997L26.19 7.81997C26.6101 8.00519 26.9537 8.3293 27.163 8.73788C27.3724 9.14646 27.4348 9.61463 27.3398 10.0638C27.2449 10.513 26.9982 10.9158 26.6414 11.2046C26.2845 11.4934 25.8391 11.6507 25.38 11.65L25.41 11.7ZM11.33 8.89997C10.8839 8.90716 10.4482 8.76495 10.0922 8.49597C9.73614 8.22699 9.48031 7.84669 9.36534 7.41555C9.25037 6.98442 9.28287 6.52723 9.45768 6.1167C9.63248 5.70617 9.93955 5.36588 10.33 5.14997C12.1813 4.13557 14.306 3.73302 16.4 3.99997C16.6627 4.03214 16.9164 4.11573 17.1467 4.24597C17.3771 4.3762 17.5795 4.55053 17.7425 4.759C17.9055 4.96746 18.0258 5.20599 18.0965 5.46095C18.1673 5.71592 18.1872 5.98233 18.155 6.24497C18.1229 6.50761 18.0393 6.76135 17.909 6.99169C17.7788 7.22203 17.6045 7.42446 17.396 7.58742C17.1875 7.75039 16.949 7.8707 16.694 7.94149C16.4391 8.01227 16.1727 8.03214 15.91 7.99997C14.6598 7.84758 13.3933 8.09248 12.29 8.69997C11.9916 8.84527 11.6617 8.914 11.33 8.89997V8.89997Z" fill="url(#paint0_linear)" id="id_135"></path>
<path d="M52.87 2C50.414 2.03949 48.0738 3.05112 46.3624 4.81315C44.651 6.57518 43.708 8.94385 43.7401 11.4C43.7401 16.15 50.24 22.11 51.55 23.26C51.915 23.5806 52.3842 23.7575 52.87 23.7575C53.3559 23.7575 53.8251 23.5806 54.19 23.26C55.49 22.11 62 16.15 62 11.4C62.0321 8.94385 61.0891 6.57518 59.3777 4.81315C57.6663 3.05112 55.3261 2.03949 52.87 2V2Z" fill="url(#paint1_linear)" id="id_136"></path>
<path d="M16.0001 44.7099L3.19011 50.3399C2.81498 50.5066 2.50022 50.7847 2.28856 51.1364C2.0769 51.4881 1.9786 51.8965 2.00699 52.306C2.03538 52.7155 2.1891 53.1063 2.44727 53.4255C2.70544 53.7446 3.05557 53.9766 3.45011 54.0899L9.17011 55.7299L11.9101 60.9399C12.081 61.2608 12.336 61.529 12.6479 61.7158C12.9597 61.9025 13.3166 62.0008 13.6801 61.9999H13.9401C14.3441 61.9474 14.7224 61.7727 15.0244 61.4993C15.3265 61.2259 15.5378 60.8667 15.6301 60.4699L18.7401 46.9999C18.8241 46.6394 18.8063 46.2627 18.6888 45.9117C18.5714 45.5607 18.3588 45.2492 18.0748 45.0118C17.7908 44.7744 17.4465 44.6205 17.0802 44.5672C16.7139 44.5139 16.34 44.5633 16.0001 44.7099V44.7099Z" fill="url(#paint2_linear)" id="id_137"></path>
<defs>
<linearGradient id="paint0_linear" x1="4.99003" y1="27.5" x2="59.03" y2="27.5" gradientUnits="userSpaceOnUse">
<stop stop-color="#0C90F2" id="id_138"></stop>
<stop offset="0.14" stop-color="#1092F2" id="id_139"></stop>
<stop offset="0.27" stop-color="#1C97F1" id="id_140"></stop>
<stop offset="0.4" stop-color="#2F9FF1" id="id_141"></stop>
<stop offset="0.53" stop-color="#4BABF0" id="id_142"></stop>
<stop offset="0.66" stop-color="#6EBBEE" id="id_143"></stop>
<stop offset="0.78" stop-color="#99CEED" id="id_144"></stop>
<stop offset="0.85" stop-color="#B3D9EC" id="id_145"></stop>
</linearGradient>
<linearGradient id="paint1_linear" x1="43.7401" y1="12.88" x2="62" y2="12.88" gradientUnits="userSpaceOnUse">
<stop stop-color="#2357FF" id="id_146"></stop>
<stop offset="0.38" stop-color="#1B6FF6" id="id_147"></stop>
<stop offset="1" stop-color="#0B9EE3" id="id_148"></stop>
</linearGradient>
<linearGradient id="paint2_linear" x1="35.5822" y1="974.297" x2="317.487" y2="974.297" gradientUnits="userSpaceOnUse">
<stop stop-color="#2357FF" id="id_149"></stop>
<stop offset="0.38" stop-color="#1B6FF6" id="id_150"></stop>
<stop offset="1" stop-color="#0B9EE3" id="id_151"></stop>
</linearGradient>
</defs>
</svg>