<svg xmlns="http://www.w3.org/2000/svg" viewBox="0 0 64 64"><g id="Cargo-container-logistics-ship"><path d="M61.8,32.39A1.034,1.034,0,0,0,61,32H54V20a1,1,0,0,0-1-1H19a1,1,0,0,0-1,1V35h-.28l-.77-2.32A1.014,1.014,0,0,0,16,32H15V16a1,1,0,0,0-1-1H10V12h2V10H10V9H8v1H6v2H8v3H3a1,1,0,0,0-1,1v4a1,1,0,0,0,1,1h.92L3.07,32H3a1,1,0,0,0-1,1V46.42a1.04,1.04,0,0,0,.16.55l3,4.58A1.013,1.013,0,0,0,6,52H56a1,1,0,0,0,.96-.73l5-18A.991.991,0,0,0,61.8,32.39ZM37,21H52v6H37Zm0,8H52v3.59L49.59,35H37ZM20,21H35v6H20Zm0,8H35v6H20ZM4,17h9v2H4Zm9,4V32H5.08l.85-11ZM56.35,46H8v2H55.8l-.56,2H6.54L5.23,48H6V46H4V34H15.28l.77,2.32A1.014,1.014,0,0,0,17,37H50a1.033,1.033,0,0,0,.71-.29L53.41,34h6.27Z" id="id_101"></path><rect x="22" y="31" width="2" height="2" id="id_102"></rect><rect x="25" y="31" width="2" height="2" id="id_103"></rect><rect x="28" y="31" width="2" height="2" id="id_104"></rect><rect x="31" y="31" width="2" height="2" id="id_105"></rect><rect x="39" y="31" width="2" height="2" id="id_106"></rect><rect x="42" y="31" width="2" height="2" id="id_107"></rect><rect x="45" y="31" width="2" height="2" id="id_108"></rect><rect x="48" y="31" width="2" height="2" id="id_109"></rect><rect x="22" y="23" width="2" height="2" id="id_110"></rect><rect x="25" y="23" width="2" height="2" id="id_111"></rect><rect x="28" y="23" width="2" height="2" id="id_112"></rect><rect x="31" y="23" width="2" height="2" id="id_113"></rect><rect x="39" y="23" width="2" height="2" id="id_114"></rect><rect x="42" y="23" width="2" height="2" id="id_115"></rect><rect x="45" y="23" width="2" height="2" id="id_116"></rect><rect x="48" y="23" width="2" height="2" id="id_117"></rect><rect x="52" y="40" width="2" height="2" id="id_118"></rect><rect x="47" y="40" width="2" height="2" id="id_119"></rect><rect x="42" y="40" width="2" height="2" id="id_120"></rect></g></svg>