<svg xmlns="http://www.w3.org/2000/svg" viewBox="0 0 512 512"><title>port_crane</title><g id="port_crane"><rect x="205.04" y="280.57" width="233.78" height="23.15" transform="translate(-98.15 404.05) rotate(-57.14)" style="fill:#f48521" id="id_114"></rect><polygon points="79.04 320.4 65.53 320.4 65.53 190.96 262.31 43.94 370.62 178.62 360.09 187.08 259.95 62.56 79.04 197.73 79.04 320.4" style="fill:#bababa" id="id_115"></polygon><path d="M72.29,180.21H465.2v28.27H72.29a14.14,14.14,0,0,1-14.14-14.13h0A14.14,14.14,0,0,1,72.29,180.21Z" style="fill:#f48521" id="id_116"></path><polygon points="306.94 336.69 279.38 336.69 248.78 384.05 263.35 393.45 270.27 393.45 306.94 336.69" style="fill:#aa5413" id="id_117"></polygon><path d="M72.29,180.21H86.42v28.27H72.29a14.14,14.14,0,0,1-14.14-14.13h0A14.14,14.14,0,0,1,72.29,180.21Z" style="fill:#f48521" id="id_118"></path><path d="M368.6,208.48V371.62H275.26V57.93a14.14,14.14,0,0,0-14.13-14.14h0A14.14,14.14,0,0,0,247,57.93V468.21h28.27V399.89H368.6v68.32h28.27V208.48Z" style="fill:#f48521" id="id_119"></path><path d="M66.07,332.41V321H78.5v23H72.29a13.05,13.05,0,1,0,13,13.05v-1H97.77v1a25.49,25.49,0,1,1-31.7-24.72Z" style="fill:#bababa" id="id_120"></path><circle cx="72.28" cy="315.47" r="10.95" style="fill:#ff6969" id="id_121"></circle><rect x="246.99" y="208.48" width="28.27" height="32.87" style="fill:#aa5413" id="id_122"></rect><rect x="368.6" y="208.48" width="28.27" height="32.87" style="fill:#aa5413" id="id_123"></rect><polygon points="340.96 241.36 368.52 241.36 389.75 208.48 362.19 208.48 340.96 241.36" style="fill:#aa5413" id="id_124"></polygon><rect x="246.99" y="168.61" width="28.27" height="11.6" style="fill:#aa5413" id="id_125"></rect><path d="M364.11,111.81h96.82a4.27,4.27,0,0,1,4.27,4.27v64.13a0,0,0,0,1,0,0H359.85a0,0,0,0,1,0,0V116.08A4.27,4.27,0,0,1,364.11,111.81Z" style="fill:#3e5768" id="id_126"></path></g></svg>